<svg xmlns="http://www.w3.org/2000/svg" width="1600" height="1200" viewBox="0 0 1600 1200">
  <defs>
    <linearGradient id="bg" x1="0" y1="0" x2="0" y2="1">
      <stop offset="0%" stop-color="#f8f5ef" />
      <stop offset="100%" stop-color="#ebe2d1" />
    </linearGradient>
    <filter id="blur">
      <feGaussianBlur stdDeviation="18" />
    </filter>
  </defs>
  <rect width="100%" height="100%" fill="url(#bg)" />
  <ellipse cx="774.00" cy="961.38" rx="292.32" ry="52.62" fill="#7d6646" fill-opacity="0.18" filter="url(#blur)" />
  <text x="100" y="120" font-family="Helvetica, Arial, sans-serif" font-size="68" fill="#201a14">Kenwood TH-D75 Desk Holder</text>
  <text x="100" y="175" font-family="Helvetica, Arial, sans-serif" font-size="32" fill="#5e5143">Exact render from the exported OBJ mesh</text>
  <polygon points="810.39,906.90 760.12,914.94 762.13,906.90" fill="#594829" fill-opacity="1.000" stroke="#705329" stroke-opacity="0.45" stroke-width="1.2" /><polygon points="760.12,914.94 737.46,889.28 762.13,906.90" fill="#594829" fill-opacity="1.000" stroke="#705329" stroke-opacity="0.45" stroke-width="1.2" /><polygon points="808.38,914.94 760.12,914.94 810.39,906.90" fill="#594829" fill-opacity="1.000" stroke="#705329" stroke-opacity="0.45" stroke-width="1.2" /><polygon points="739.47,881.23 810.39,906.90 762.13,906.90" fill="#745d36" fill-opacity="1.000" stroke="#705329" stroke-opacity="0.45" stroke-width="1.2" /><polygon points="762.13,906.90 737.46,889.28 739.47,881.23" fill="#594829" fill-opacity="1.000" stroke="#705329" stroke-opacity="0.45" stroke-width="1.2" /><polygon points="808.38,914.94 785.73,889.28 760.12,914.94" fill="#594829" fill-opacity="1.000" stroke="#705329" stroke-opacity="0.45" stroke-width="1.2" /><polygon points="1128.99,919.73 743.30,943.86 749.33,919.73" fill="#594829" fill-opacity="1.000" stroke="#705329" stroke-opacity="0.45" stroke-width="1.2" /><polygon points="760.12,914.94 785.73,889.28 737.46,889.28" fill="#594829" fill-opacity="1.000" stroke="#705329" stroke-opacity="0.45" stroke-width="1.2" /><polygon points="787.73,881.23 808.38,914.94 810.39,906.90" fill="#a1824b" fill-opacity="1.000" stroke="#705329" stroke-opacity="0.45" stroke-width="1.2" /><polygon points="787.73,881.23 810.39,906.90 739.47,881.23" fill="#745d36" fill-opacity="1.000" stroke="#705329" stroke-opacity="0.45" stroke-width="1.2" /><polygon points="737.46,889.28 785.73,889.28 739.47,881.23" fill="#a5864d" fill-opacity="1.000" stroke="#705329" stroke-opacity="0.45" stroke-width="1.2" /><polygon points="785.73,889.28 808.38,914.94 787.73,881.23" fill="#a1824b" fill-opacity="1.000" stroke="#705329" stroke-opacity="0.45" stroke-width="1.2" /><polygon points="739.47,881.23 785.73,889.28 787.73,881.23" fill="#a5864d" fill-opacity="1.000" stroke="#705329" stroke-opacity="0.45" stroke-width="1.2" /><polygon points="789.26,913.92 747.06,986.31 765.13,913.92" fill="#594829" fill-opacity="1.000" stroke="#705329" stroke-opacity="0.45" stroke-width="1.2" /><polygon points="771.19,986.31 747.06,986.31 789.26,913.92" fill="#594829" fill-opacity="1.000" stroke="#705329" stroke-opacity="0.45" stroke-width="1.2" /><polygon points="777.93,901.09 858.44,913.92 789.26,913.92" fill="#745d36" fill-opacity="1.000" stroke="#705329" stroke-opacity="0.45" stroke-width="1.2" /><polygon points="858.44,913.92 771.19,986.31 789.26,913.92" fill="#594829" fill-opacity="1.000" stroke="#705329" stroke-opacity="0.45" stroke-width="1.2" /><polygon points="789.26,913.92 759.86,973.48 777.93,901.09" fill="#594829" fill-opacity="1.000" stroke="#705329" stroke-opacity="0.45" stroke-width="1.2" /><polygon points="771.19,986.31 759.86,973.48 789.26,913.92" fill="#594829" fill-opacity="1.000" stroke="#705329" stroke-opacity="0.45" stroke-width="1.2" /><polygon points="847.11,901.09 858.44,913.92 777.93,901.09" fill="#745d36" fill-opacity="1.000" stroke="#705329" stroke-opacity="0.45" stroke-width="1.2" /><polygon points="1122.96,943.86 743.30,943.86 1128.99,919.73" fill="#594829" fill-opacity="1.000" stroke="#705329" stroke-opacity="0.45" stroke-width="1.2" /><polygon points="803.07,913.15 798.92,908.45 806.09,901.09" fill="#594829" fill-opacity="1.000" stroke="#705329" stroke-opacity="0.45" stroke-width="1.2" /><polygon points="806.09,901.09 798.92,908.45 801.93,896.38" fill="#594829" fill-opacity="1.000" stroke="#705329" stroke-opacity="0.45" stroke-width="1.2" /><polygon points="840.37,986.31 771.19,986.31 858.44,913.92" fill="#594829" fill-opacity="1.000" stroke="#705329" stroke-opacity="0.45" stroke-width="1.2" /><polygon points="773.56,886.12 761.70,898.19 764.72,886.12" fill="#594829" fill-opacity="1.000" stroke="#705329" stroke-opacity="0.45" stroke-width="1.2" /><polygon points="878.48,901.09 803.07,913.15 806.09,901.09" fill="#594829" fill-opacity="1.000" stroke="#705329" stroke-opacity="0.45" stroke-width="1.2" /><polygon points="801.93,896.38 878.48,901.09 806.09,901.09" fill="#745d36" fill-opacity="1.000" stroke="#705329" stroke-opacity="0.45" stroke-width="1.2" /><polygon points="770.55,898.19 761.70,898.19 773.56,886.12" fill="#594829" fill-opacity="1.000" stroke="#705329" stroke-opacity="0.45" stroke-width="1.2" /><polygon points="847.11,901.09 840.37,986.31 858.44,913.92" fill="#a1824b" fill-opacity="1.000" stroke="#705329" stroke-opacity="0.45" stroke-width="1.2" /><polygon points="759.86,973.48 829.04,973.48 777.93,901.09" fill="#a5864d" fill-opacity="1.000" stroke="#705329" stroke-opacity="0.45" stroke-width="1.2" /><polygon points="777.93,901.09 829.04,973.48 847.11,901.09" fill="#a5864d" fill-opacity="1.000" stroke="#705329" stroke-opacity="0.45" stroke-width="1.2" /><polygon points="803.07,913.15 871.31,908.45 798.92,908.45" fill="#594829" fill-opacity="1.000" stroke="#705329" stroke-opacity="0.45" stroke-width="1.2" /><polygon points="771.19,986.31 829.04,973.48 759.86,973.48" fill="#594829" fill-opacity="1.000" stroke="#705329" stroke-opacity="0.45" stroke-width="1.2" /><polygon points="798.92,908.45 871.31,908.45 801.93,896.38" fill="#a5864d" fill-opacity="1.000" stroke="#705329" stroke-opacity="0.45" stroke-width="1.2" /><polygon points="840.37,986.31 829.04,973.48 771.19,986.31" fill="#594829" fill-opacity="1.000" stroke="#705329" stroke-opacity="0.45" stroke-width="1.2" /><polygon points="875.47,913.15 803.07,913.15 878.48,901.09" fill="#594829" fill-opacity="1.000" stroke="#705329" stroke-opacity="0.45" stroke-width="1.2" /><polygon points="874.33,896.38 878.48,901.09 801.93,896.38" fill="#745d36" fill-opacity="1.000" stroke="#705329" stroke-opacity="0.45" stroke-width="1.2" /><polygon points="875.47,913.15 871.31,908.45 803.07,913.15" fill="#594829" fill-opacity="1.000" stroke="#705329" stroke-opacity="0.45" stroke-width="1.2" /><polygon points="801.93,896.38 871.31,908.45 874.33,896.38" fill="#a5864d" fill-opacity="1.000" stroke="#705329" stroke-opacity="0.45" stroke-width="1.2" /><polygon points="829.04,973.48 840.37,986.31 847.11,901.09" fill="#a1824b" fill-opacity="1.000" stroke="#705329" stroke-opacity="0.45" stroke-width="1.2" /><polygon points="874.33,896.38 875.47,913.15 878.48,901.09" fill="#a1824b" fill-opacity="1.000" stroke="#705329" stroke-opacity="0.45" stroke-width="1.2" /><polygon points="871.31,908.45 875.47,913.15 874.33,896.38" fill="#a1824b" fill-opacity="1.000" stroke="#705329" stroke-opacity="0.45" stroke-width="1.2" /><polygon points="1093.53,906.90 1043.26,914.94 1045.27,906.90" fill="#594829" fill-opacity="1.000" stroke="#705329" stroke-opacity="0.45" stroke-width="1.2" /><polygon points="909.25,913.15 905.10,908.45 912.26,901.09" fill="#594829" fill-opacity="1.000" stroke="#705329" stroke-opacity="0.45" stroke-width="1.2" /><polygon points="912.26,901.09 905.10,908.45 908.11,896.38" fill="#594829" fill-opacity="1.000" stroke="#705329" stroke-opacity="0.45" stroke-width="1.2" /><polygon points="1043.26,914.94 1020.60,889.28 1045.27,906.90" fill="#594829" fill-opacity="1.000" stroke="#705329" stroke-opacity="0.45" stroke-width="1.2" /><polygon points="743.30,943.86 432.99,592.40 749.33,919.73" fill="#594829" fill-opacity="1.000" stroke="#705329" stroke-opacity="0.45" stroke-width="1.2" /><polygon points="1091.52,914.94 1043.26,914.94 1093.53,906.90" fill="#594829" fill-opacity="1.000" stroke="#705329" stroke-opacity="0.45" stroke-width="1.2" /><polygon points="984.66,901.09 909.25,913.15 912.26,901.09" fill="#594829" fill-opacity="1.000" stroke="#705329" stroke-opacity="0.45" stroke-width="1.2" /><polygon points="943.63,901.09 1024.14,913.92 954.96,913.92" fill="#745d36" fill-opacity="1.000" stroke="#705329" stroke-opacity="0.45" stroke-width="1.2" /><polygon points="1022.61,881.23 1093.53,906.90 1045.27,906.90" fill="#745d36" fill-opacity="1.000" stroke="#705329" stroke-opacity="0.45" stroke-width="1.2" /><polygon points="908.11,896.38 984.66,901.09 912.26,901.09" fill="#745d36" fill-opacity="1.000" stroke="#705329" stroke-opacity="0.45" stroke-width="1.2" /><polygon points="1024.14,913.92 936.89,986.31 954.96,913.92" fill="#594829" fill-opacity="1.000" stroke="#705329" stroke-opacity="0.45" stroke-width="1.2" /><polygon points="954.96,913.92 925.56,973.48 943.63,901.09" fill="#594829" fill-opacity="1.000" stroke="#705329" stroke-opacity="0.45" stroke-width="1.2" /><polygon points="1045.27,906.90 1020.60,889.28 1022.61,881.23" fill="#594829" fill-opacity="1.000" stroke="#705329" stroke-opacity="0.45" stroke-width="1.2" /><polygon points="909.25,913.15 977.49,908.45 905.10,908.45" fill="#594829" fill-opacity="1.000" stroke="#705329" stroke-opacity="0.45" stroke-width="1.2" /><polygon points="905.10,908.45 977.49,908.45 908.11,896.38" fill="#a5864d" fill-opacity="1.000" stroke="#705329" stroke-opacity="0.45" stroke-width="1.2" /><polygon points="936.89,986.31 925.56,973.48 954.96,913.92" fill="#594829" fill-opacity="1.000" stroke="#705329" stroke-opacity="0.45" stroke-width="1.2" /><polygon points="1091.52,914.94 1068.86,889.28 1043.26,914.94" fill="#594829" fill-opacity="1.000" stroke="#705329" stroke-opacity="0.45" stroke-width="1.2" /><polygon points="981.64,913.15 909.25,913.15 984.66,901.09" fill="#594829" fill-opacity="1.000" stroke="#705329" stroke-opacity="0.45" stroke-width="1.2" /><polygon points="980.50,896.38 984.66,901.09 908.11,896.38" fill="#745d36" fill-opacity="1.000" stroke="#705329" stroke-opacity="0.45" stroke-width="1.2" /><polygon points="1043.26,914.94 1068.86,889.28 1020.60,889.28" fill="#594829" fill-opacity="1.000" stroke="#705329" stroke-opacity="0.45" stroke-width="1.2" /><polygon points="1070.87,881.23 1091.52,914.94 1093.53,906.90" fill="#a1824b" fill-opacity="1.000" stroke="#705329" stroke-opacity="0.45" stroke-width="1.2" /><polygon points="981.64,913.15 977.49,908.45 909.25,913.15" fill="#594829" fill-opacity="1.000" stroke="#705329" stroke-opacity="0.45" stroke-width="1.2" /><polygon points="1012.81,901.09 1024.14,913.92 943.63,901.09" fill="#745d36" fill-opacity="1.000" stroke="#705329" stroke-opacity="0.45" stroke-width="1.2" /><polygon points="908.11,896.38 977.49,908.45 980.50,896.38" fill="#a5864d" fill-opacity="1.000" stroke="#705329" stroke-opacity="0.45" stroke-width="1.2" /><polygon points="1070.87,881.23 1093.53,906.90 1022.61,881.23" fill="#745d36" fill-opacity="1.000" stroke="#705329" stroke-opacity="0.45" stroke-width="1.2" /><polygon points="1006.07,986.31 936.89,986.31 1024.14,913.92" fill="#594829" fill-opacity="1.000" stroke="#705329" stroke-opacity="0.45" stroke-width="1.2" /><polygon points="980.50,896.38 981.64,913.15 984.66,901.09" fill="#a1824b" fill-opacity="1.000" stroke="#705329" stroke-opacity="0.45" stroke-width="1.2" /><polygon points="1020.60,889.28 1068.86,889.28 1022.61,881.23" fill="#a5864d" fill-opacity="1.000" stroke="#705329" stroke-opacity="0.45" stroke-width="1.2" /><polygon points="977.49,908.45 981.64,913.15 980.50,896.38" fill="#a1824b" fill-opacity="1.000" stroke="#705329" stroke-opacity="0.45" stroke-width="1.2" /><polygon points="1068.86,889.28 1091.52,914.94 1070.87,881.23" fill="#a1824b" fill-opacity="1.000" stroke="#705329" stroke-opacity="0.45" stroke-width="1.2" /><polygon points="1012.81,901.09 1006.07,986.31 1024.14,913.92" fill="#a1824b" fill-opacity="1.000" stroke="#705329" stroke-opacity="0.45" stroke-width="1.2" /><polygon points="925.56,973.48 994.74,973.48 943.63,901.09" fill="#a5864d" fill-opacity="1.000" stroke="#705329" stroke-opacity="0.45" stroke-width="1.2" /><polygon points="943.63,901.09 994.74,973.48 1012.81,901.09" fill="#a5864d" fill-opacity="1.000" stroke="#705329" stroke-opacity="0.45" stroke-width="1.2" /><polygon points="1022.61,881.23 1068.86,889.28 1070.87,881.23" fill="#a5864d" fill-opacity="1.000" stroke="#705329" stroke-opacity="0.45" stroke-width="1.2" /><polygon points="1044.49,909.64 1002.29,982.04 1020.36,909.64" fill="#594829" fill-opacity="1.000" stroke="#705329" stroke-opacity="0.45" stroke-width="1.2" /><polygon points="936.89,986.31 994.74,973.48 925.56,973.48" fill="#594829" fill-opacity="1.000" stroke="#705329" stroke-opacity="0.45" stroke-width="1.2" /><polygon points="507.68,622.34 789.26,913.92 765.13,913.92" fill="#745d36" fill-opacity="1.000" stroke="#705329" stroke-opacity="0.45" stroke-width="1.2" /><polygon points="1006.07,986.31 994.74,973.48 936.89,986.31" fill="#594829" fill-opacity="1.000" stroke="#705329" stroke-opacity="0.45" stroke-width="1.2" /><polygon points="994.74,973.48 1006.07,986.31 1012.81,901.09" fill="#a1824b" fill-opacity="1.000" stroke="#705329" stroke-opacity="0.45" stroke-width="1.2" /><polygon points="439.01,568.27 1128.99,919.73 749.33,919.73" fill="#745d36" fill-opacity="1.000" stroke="#705329" stroke-opacity="0.45" stroke-width="1.2" /><polygon points="978.82,862.60 1044.49,909.64 1020.36,909.64" fill="#745d36" fill-opacity="1.000" stroke="#705329" stroke-opacity="0.45" stroke-width="1.2" /><polygon points="1026.42,982.04 1002.29,982.04 1044.49,909.64" fill="#594829" fill-opacity="1.000" stroke="#705329" stroke-opacity="0.45" stroke-width="1.2" /><polygon points="747.06,986.31 489.61,694.74 765.13,913.92" fill="#594829" fill-opacity="1.000" stroke="#705329" stroke-opacity="0.45" stroke-width="1.2" /><polygon points="531.82,622.34 771.19,986.31 789.26,913.92" fill="#a1824b" fill-opacity="1.000" stroke="#705329" stroke-opacity="0.45" stroke-width="1.2" /><polygon points="556.36,650.14 773.56,886.12 764.72,886.12" fill="#745d36" fill-opacity="1.000" stroke="#705329" stroke-opacity="0.45" stroke-width="1.2" /><polygon points="761.70,898.19 553.35,662.21 764.72,886.12" fill="#594829" fill-opacity="1.000" stroke="#705329" stroke-opacity="0.45" stroke-width="1.2" /><polygon points="1002.29,982.04 960.75,934.99 1020.36,909.64" fill="#594829" fill-opacity="1.000" stroke="#705329" stroke-opacity="0.45" stroke-width="1.2" /><polygon points="1002.95,862.60 1026.42,982.04 1044.49,909.64" fill="#a1824b" fill-opacity="1.000" stroke="#705329" stroke-opacity="0.45" stroke-width="1.2" /><polygon points="565.21,650.14 770.55,898.19 773.56,886.12" fill="#a1824b" fill-opacity="1.000" stroke="#705329" stroke-opacity="0.45" stroke-width="1.2" /><polygon points="770.55,898.19 562.20,662.21 761.70,898.19" fill="#594829" fill-opacity="1.000" stroke="#705329" stroke-opacity="0.45" stroke-width="1.2" /><polygon points="771.19,986.31 513.74,694.74 747.06,986.31" fill="#594829" fill-opacity="1.000" stroke="#705329" stroke-opacity="0.45" stroke-width="1.2" /><polygon points="1002.95,862.60 1044.49,909.64 978.82,862.60" fill="#745d36" fill-opacity="1.000" stroke="#705329" stroke-opacity="0.45" stroke-width="1.2" /><polygon points="1020.36,909.64 960.75,934.99 978.82,862.60" fill="#594829" fill-opacity="1.000" stroke="#705329" stroke-opacity="0.45" stroke-width="1.2" /><polygon points="1026.42,982.04 984.88,934.99 1002.29,982.04" fill="#594829" fill-opacity="1.000" stroke="#705329" stroke-opacity="0.45" stroke-width="1.2" /><polygon points="984.88,934.99 1026.42,982.04 1002.95,862.60" fill="#a1824b" fill-opacity="1.000" stroke="#705329" stroke-opacity="0.45" stroke-width="1.2" /><polygon points="1002.29,982.04 984.88,934.99 960.75,934.99" fill="#594829" fill-opacity="1.000" stroke="#705329" stroke-opacity="0.45" stroke-width="1.2" /><polygon points="978.82,862.60 984.88,934.99 1002.95,862.60" fill="#a5864d" fill-opacity="1.000" stroke="#705329" stroke-opacity="0.45" stroke-width="1.2" /><polygon points="960.75,934.99 984.88,934.99 978.82,862.60" fill="#a5864d" fill-opacity="1.000" stroke="#705329" stroke-opacity="0.45" stroke-width="1.2" /><polygon points="1122.96,943.86 812.65,592.40 743.30,943.86" fill="#594829" fill-opacity="1.000" stroke="#705329" stroke-opacity="0.45" stroke-width="1.2" /><polygon points="749.33,919.73 432.99,592.40 439.01,568.27" fill="#594829" fill-opacity="1.000" stroke="#705329" stroke-opacity="0.45" stroke-width="1.2" /><polygon points="818.67,568.27 1122.96,943.86 1128.99,919.73" fill="#a1824b" fill-opacity="1.000" stroke="#705329" stroke-opacity="0.45" stroke-width="1.2" /><polygon points="764.72,886.12 553.35,662.21 556.36,650.14" fill="#594829" fill-opacity="1.000" stroke="#705329" stroke-opacity="0.45" stroke-width="1.2" /><polygon points="565.21,650.14 773.56,886.12 556.36,650.14" fill="#745d36" fill-opacity="1.000" stroke="#705329" stroke-opacity="0.45" stroke-width="1.2" /><polygon points="761.70,898.19 562.20,662.21 553.35,662.21" fill="#594829" fill-opacity="1.000" stroke="#705329" stroke-opacity="0.45" stroke-width="1.2" /><polygon points="562.20,662.21 770.55,898.19 565.21,650.14" fill="#a1824b" fill-opacity="1.000" stroke="#705329" stroke-opacity="0.45" stroke-width="1.2" /><polygon points="531.82,622.34 789.26,913.92 507.68,622.34" fill="#745d36" fill-opacity="1.000" stroke="#705329" stroke-opacity="0.45" stroke-width="1.2" /><polygon points="765.13,913.92 489.61,694.74 507.68,622.34" fill="#594829" fill-opacity="1.000" stroke="#705329" stroke-opacity="0.45" stroke-width="1.2" /><polygon points="513.74,694.74 771.19,986.31 531.82,622.34" fill="#a1824b" fill-opacity="1.000" stroke="#705329" stroke-opacity="0.45" stroke-width="1.2" /><polygon points="747.06,986.31 513.74,694.74 489.61,694.74" fill="#594829" fill-opacity="1.000" stroke="#705329" stroke-opacity="0.45" stroke-width="1.2" /><polygon points="743.30,943.86 812.65,592.40 432.99,592.40" fill="#594829" fill-opacity="1.000" stroke="#705329" stroke-opacity="0.45" stroke-width="1.2" /><polygon points="818.67,568.27 1128.99,919.73 439.01,568.27" fill="#745d36" fill-opacity="1.000" stroke="#705329" stroke-opacity="0.45" stroke-width="1.2" /><polygon points="545.39,606.77 495.12,614.81 497.13,606.77" fill="#594829" fill-opacity="1.000" stroke="#705329" stroke-opacity="0.45" stroke-width="1.2" /><polygon points="556.36,650.14 562.20,662.21 565.21,650.14" fill="#a5864d" fill-opacity="1.000" stroke="#705329" stroke-opacity="0.45" stroke-width="1.2" /><polygon points="553.35,662.21 562.20,662.21 556.36,650.14" fill="#a5864d" fill-opacity="1.000" stroke="#705329" stroke-opacity="0.45" stroke-width="1.2" /><polygon points="495.12,614.81 472.46,589.15 497.13,606.77" fill="#594829" fill-opacity="1.000" stroke="#705329" stroke-opacity="0.45" stroke-width="1.2" /><polygon points="543.38,614.81 495.12,614.81 545.39,606.77" fill="#594829" fill-opacity="1.000" stroke="#705329" stroke-opacity="0.45" stroke-width="1.2" /><polygon points="474.47,581.10 545.39,606.77 497.13,606.77" fill="#745d36" fill-opacity="1.000" stroke="#705329" stroke-opacity="0.45" stroke-width="1.2" /><polygon points="497.13,606.77 472.46,589.15 474.47,581.10" fill="#594829" fill-opacity="1.000" stroke="#705329" stroke-opacity="0.45" stroke-width="1.2" /><polygon points="543.38,614.81 520.73,589.15 495.12,614.81" fill="#594829" fill-opacity="1.000" stroke="#705329" stroke-opacity="0.45" stroke-width="1.2" /><polygon points="495.12,614.81 520.73,589.15 472.46,589.15" fill="#594829" fill-opacity="1.000" stroke="#705329" stroke-opacity="0.45" stroke-width="1.2" /><polygon points="522.73,581.10 543.38,614.81 545.39,606.77" fill="#a1824b" fill-opacity="1.000" stroke="#705329" stroke-opacity="0.45" stroke-width="1.2" /><polygon points="572.44,651.94 568.28,647.24 575.45,639.88" fill="#594829" fill-opacity="1.000" stroke="#705329" stroke-opacity="0.45" stroke-width="1.2" /><polygon points="575.45,639.88 568.28,647.24 571.30,635.17" fill="#594829" fill-opacity="1.000" stroke="#705329" stroke-opacity="0.45" stroke-width="1.2" /><polygon points="522.73,581.10 545.39,606.77 474.47,581.10" fill="#745d36" fill-opacity="1.000" stroke="#705329" stroke-opacity="0.45" stroke-width="1.2" /><polygon points="531.82,622.34 604.28,635.17 543.14,635.17" fill="#745d36" fill-opacity="1.000" stroke="#705329" stroke-opacity="0.45" stroke-width="1.2" /><polygon points="647.84,639.88 572.44,651.94 575.45,639.88" fill="#594829" fill-opacity="1.000" stroke="#705329" stroke-opacity="0.45" stroke-width="1.2" /><polygon points="604.28,635.17 525.07,707.57 543.14,635.17" fill="#594829" fill-opacity="1.000" stroke="#705329" stroke-opacity="0.45" stroke-width="1.2" /><polygon points="571.30,635.17 647.84,639.88 575.45,639.88" fill="#745d36" fill-opacity="1.000" stroke="#705329" stroke-opacity="0.45" stroke-width="1.2" /><polygon points="472.46,589.15 520.73,589.15 474.47,581.10" fill="#a5864d" fill-opacity="1.000" stroke="#705329" stroke-opacity="0.45" stroke-width="1.2" /><polygon points="543.14,635.17 513.74,694.74 531.82,622.34" fill="#594829" fill-opacity="1.000" stroke="#705329" stroke-opacity="0.45" stroke-width="1.2" /><polygon points="520.73,589.15 543.38,614.81 522.73,581.10" fill="#a1824b" fill-opacity="1.000" stroke="#705329" stroke-opacity="0.45" stroke-width="1.2" /><polygon points="507.68,622.34 513.74,694.74 531.82,622.34" fill="#a5864d" fill-opacity="1.000" stroke="#705329" stroke-opacity="0.45" stroke-width="1.2" /><polygon points="525.07,707.57 513.74,694.74 543.14,635.17" fill="#594829" fill-opacity="1.000" stroke="#705329" stroke-opacity="0.45" stroke-width="1.2" /><polygon points="572.44,651.94 640.68,647.24 568.28,647.24" fill="#594829" fill-opacity="1.000" stroke="#705329" stroke-opacity="0.45" stroke-width="1.2" /><polygon points="474.47,581.10 520.73,589.15 522.73,581.10" fill="#a5864d" fill-opacity="1.000" stroke="#705329" stroke-opacity="0.45" stroke-width="1.2" /><polygon points="568.28,647.24 640.68,647.24 571.30,635.17" fill="#a5864d" fill-opacity="1.000" stroke="#705329" stroke-opacity="0.45" stroke-width="1.2" /><polygon points="489.61,694.74 513.74,694.74 507.68,622.34" fill="#a5864d" fill-opacity="1.000" stroke="#705329" stroke-opacity="0.45" stroke-width="1.2" /><polygon points="592.95,622.34 604.28,635.17 531.82,622.34" fill="#745d36" fill-opacity="1.000" stroke="#705329" stroke-opacity="0.45" stroke-width="1.2" /><polygon points="812.65,592.40 1122.96,943.86 818.67,568.27" fill="#a1824b" fill-opacity="1.000" stroke="#705329" stroke-opacity="0.45" stroke-width="1.2" /><polygon points="644.83,651.94 572.44,651.94 647.84,639.88" fill="#594829" fill-opacity="1.000" stroke="#705329" stroke-opacity="0.45" stroke-width="1.2" /><polygon points="643.69,635.17 647.84,639.88 571.30,635.17" fill="#745d36" fill-opacity="1.000" stroke="#705329" stroke-opacity="0.45" stroke-width="1.2" /><polygon points="644.83,651.94 640.68,647.24 572.44,651.94" fill="#594829" fill-opacity="1.000" stroke="#705329" stroke-opacity="0.45" stroke-width="1.2" /><polygon points="571.30,635.17 640.68,647.24 643.69,635.17" fill="#a5864d" fill-opacity="1.000" stroke="#705329" stroke-opacity="0.45" stroke-width="1.2" /><polygon points="586.20,707.57 525.07,707.57 604.28,635.17" fill="#594829" fill-opacity="1.000" stroke="#705329" stroke-opacity="0.45" stroke-width="1.2" /><polygon points="643.69,635.17 644.83,651.94 647.84,639.88" fill="#a1824b" fill-opacity="1.000" stroke="#705329" stroke-opacity="0.45" stroke-width="1.2" /><polygon points="592.95,622.34 586.20,707.57 604.28,635.17" fill="#a1824b" fill-opacity="1.000" stroke="#705329" stroke-opacity="0.45" stroke-width="1.2" /><polygon points="531.82,622.34 574.88,694.74 592.95,622.34" fill="#a5864d" fill-opacity="1.000" stroke="#705329" stroke-opacity="0.45" stroke-width="1.2" /><polygon points="640.68,647.24 644.83,651.94 643.69,635.17" fill="#a1824b" fill-opacity="1.000" stroke="#705329" stroke-opacity="0.45" stroke-width="1.2" /><polygon points="513.74,694.74 574.88,694.74 531.82,622.34" fill="#a5864d" fill-opacity="1.000" stroke="#705329" stroke-opacity="0.45" stroke-width="1.2" /><polygon points="525.07,707.57 574.88,694.74 513.74,694.74" fill="#594829" fill-opacity="1.000" stroke="#705329" stroke-opacity="0.45" stroke-width="1.2" /><polygon points="586.20,707.57 574.88,694.74 525.07,707.57" fill="#594829" fill-opacity="1.000" stroke="#705329" stroke-opacity="0.45" stroke-width="1.2" /><polygon points="574.88,694.74 586.20,707.57 592.95,622.34" fill="#a1824b" fill-opacity="1.000" stroke="#705329" stroke-opacity="0.45" stroke-width="1.2" /><polygon points="678.62,651.94 674.46,647.24 681.63,639.88" fill="#594829" fill-opacity="1.000" stroke="#705329" stroke-opacity="0.45" stroke-width="1.2" /><polygon points="681.63,639.88 674.46,647.24 677.47,635.17" fill="#594829" fill-opacity="1.000" stroke="#705329" stroke-opacity="0.45" stroke-width="1.2" /><polygon points="836.14,673.67 793.93,746.06 812.01,673.67" fill="#594829" fill-opacity="1.000" stroke="#705329" stroke-opacity="0.45" stroke-width="1.2" /><polygon points="754.02,639.88 678.62,651.94 681.63,639.88" fill="#594829" fill-opacity="1.000" stroke="#705329" stroke-opacity="0.45" stroke-width="1.2" /><polygon points="677.47,635.17 754.02,639.88 681.63,639.88" fill="#745d36" fill-opacity="1.000" stroke="#705329" stroke-opacity="0.45" stroke-width="1.2" /><polygon points="678.62,651.94 746.85,647.24 674.46,647.24" fill="#594829" fill-opacity="1.000" stroke="#705329" stroke-opacity="0.45" stroke-width="1.2" /><polygon points="674.46,647.24 746.85,647.24 677.47,635.17" fill="#a5864d" fill-opacity="1.000" stroke="#705329" stroke-opacity="0.45" stroke-width="1.2" /><polygon points="770.47,626.62 836.14,673.67 812.01,673.67" fill="#745d36" fill-opacity="1.000" stroke="#705329" stroke-opacity="0.45" stroke-width="1.2" /><polygon points="818.07,746.06 793.93,746.06 836.14,673.67" fill="#594829" fill-opacity="1.000" stroke="#705329" stroke-opacity="0.45" stroke-width="1.2" /><polygon points="751.01,651.94 678.62,651.94 754.02,639.88" fill="#594829" fill-opacity="1.000" stroke="#705329" stroke-opacity="0.45" stroke-width="1.2" /><polygon points="749.87,635.17 754.02,639.88 677.47,635.17" fill="#745d36" fill-opacity="1.000" stroke="#705329" stroke-opacity="0.45" stroke-width="1.2" /><polygon points="432.99,592.40 812.65,592.40 439.01,568.27" fill="#a5864d" fill-opacity="1.000" stroke="#705329" stroke-opacity="0.45" stroke-width="1.2" /><polygon points="751.01,651.94 746.85,647.24 678.62,651.94" fill="#594829" fill-opacity="1.000" stroke="#705329" stroke-opacity="0.45" stroke-width="1.2" /><polygon points="677.47,635.17 746.85,647.24 749.87,635.17" fill="#a5864d" fill-opacity="1.000" stroke="#705329" stroke-opacity="0.45" stroke-width="1.2" /><polygon points="749.87,635.17 751.01,651.94 754.02,639.88" fill="#a1824b" fill-opacity="1.000" stroke="#705329" stroke-opacity="0.45" stroke-width="1.2" /><polygon points="793.93,746.06 752.40,699.01 812.01,673.67" fill="#594829" fill-opacity="1.000" stroke="#705329" stroke-opacity="0.45" stroke-width="1.2" /><polygon points="705.56,622.34 778.02,635.17 716.89,635.17" fill="#745d36" fill-opacity="1.000" stroke="#705329" stroke-opacity="0.45" stroke-width="1.2" /><polygon points="746.85,647.24 751.01,651.94 749.87,635.17" fill="#a1824b" fill-opacity="1.000" stroke="#705329" stroke-opacity="0.45" stroke-width="1.2" /><polygon points="794.60,626.62 818.07,746.06 836.14,673.67" fill="#a1824b" fill-opacity="1.000" stroke="#705329" stroke-opacity="0.45" stroke-width="1.2" /><polygon points="778.02,635.17 698.82,707.57 716.89,635.17" fill="#594829" fill-opacity="1.000" stroke="#705329" stroke-opacity="0.45" stroke-width="1.2" /><polygon points="716.89,635.17 687.49,694.74 705.56,622.34" fill="#594829" fill-opacity="1.000" stroke="#705329" stroke-opacity="0.45" stroke-width="1.2" /><polygon points="794.60,626.62 836.14,673.67 770.47,626.62" fill="#745d36" fill-opacity="1.000" stroke="#705329" stroke-opacity="0.45" stroke-width="1.2" /><polygon points="698.82,707.57 687.49,694.74 716.89,635.17" fill="#594829" fill-opacity="1.000" stroke="#705329" stroke-opacity="0.45" stroke-width="1.2" /><polygon points="812.01,673.67 752.40,699.01 770.47,626.62" fill="#594829" fill-opacity="1.000" stroke="#705329" stroke-opacity="0.45" stroke-width="1.2" /><polygon points="766.69,622.34 778.02,635.17 705.56,622.34" fill="#745d36" fill-opacity="1.000" stroke="#705329" stroke-opacity="0.45" stroke-width="1.2" /><polygon points="818.07,746.06 776.53,699.01 793.93,746.06" fill="#594829" fill-opacity="1.000" stroke="#705329" stroke-opacity="0.45" stroke-width="1.2" /><polygon points="828.53,606.77 778.26,614.81 780.27,606.77" fill="#594829" fill-opacity="1.000" stroke="#705329" stroke-opacity="0.45" stroke-width="1.2" /><polygon points="759.95,707.57 698.82,707.57 778.02,635.17" fill="#594829" fill-opacity="1.000" stroke="#705329" stroke-opacity="0.45" stroke-width="1.2" /><polygon points="778.26,614.81 755.60,589.15 780.27,606.77" fill="#594829" fill-opacity="1.000" stroke="#705329" stroke-opacity="0.45" stroke-width="1.2" /><polygon points="826.52,614.81 778.26,614.81 828.53,606.77" fill="#594829" fill-opacity="1.000" stroke="#705329" stroke-opacity="0.45" stroke-width="1.2" /><polygon points="766.69,622.34 759.95,707.57 778.02,635.17" fill="#a1824b" fill-opacity="1.000" stroke="#705329" stroke-opacity="0.45" stroke-width="1.2" /><polygon points="757.61,581.10 828.53,606.77 780.27,606.77" fill="#745d36" fill-opacity="1.000" stroke="#705329" stroke-opacity="0.45" stroke-width="1.2" /><polygon points="705.56,622.34 748.62,694.74 766.69,622.34" fill="#a5864d" fill-opacity="1.000" stroke="#705329" stroke-opacity="0.45" stroke-width="1.2" /><polygon points="687.49,694.74 748.62,694.74 705.56,622.34" fill="#a5864d" fill-opacity="1.000" stroke="#705329" stroke-opacity="0.45" stroke-width="1.2" /><polygon points="776.53,699.01 818.07,746.06 794.60,626.62" fill="#a1824b" fill-opacity="1.000" stroke="#705329" stroke-opacity="0.45" stroke-width="1.2" /><polygon points="780.27,606.77 755.60,589.15 757.61,581.10" fill="#594829" fill-opacity="1.000" stroke="#705329" stroke-opacity="0.45" stroke-width="1.2" /><polygon points="793.93,746.06 776.53,699.01 752.40,699.01" fill="#594829" fill-opacity="1.000" stroke="#705329" stroke-opacity="0.45" stroke-width="1.2" /><polygon points="698.82,707.57 748.62,694.74 687.49,694.74" fill="#594829" fill-opacity="1.000" stroke="#705329" stroke-opacity="0.45" stroke-width="1.2" /><polygon points="759.95,707.57 748.62,694.74 698.82,707.57" fill="#594829" fill-opacity="1.000" stroke="#705329" stroke-opacity="0.45" stroke-width="1.2" /><polygon points="826.52,614.81 803.86,589.15 778.26,614.81" fill="#594829" fill-opacity="1.000" stroke="#705329" stroke-opacity="0.45" stroke-width="1.2" /><polygon points="770.47,626.62 776.53,699.01 794.60,626.62" fill="#a5864d" fill-opacity="1.000" stroke="#705329" stroke-opacity="0.45" stroke-width="1.2" /><polygon points="439.01,568.27 812.65,592.40 818.67,568.27" fill="#a5864d" fill-opacity="1.000" stroke="#705329" stroke-opacity="0.45" stroke-width="1.2" /><polygon points="778.26,614.81 803.86,589.15 755.60,589.15" fill="#594829" fill-opacity="1.000" stroke="#705329" stroke-opacity="0.45" stroke-width="1.2" /><polygon points="748.62,694.74 759.95,707.57 766.69,622.34" fill="#a1824b" fill-opacity="1.000" stroke="#705329" stroke-opacity="0.45" stroke-width="1.2" /><polygon points="805.87,581.10 826.52,614.81 828.53,606.77" fill="#a1824b" fill-opacity="1.000" stroke="#705329" stroke-opacity="0.45" stroke-width="1.2" /><polygon points="752.40,699.01 776.53,699.01 770.47,626.62" fill="#a5864d" fill-opacity="1.000" stroke="#705329" stroke-opacity="0.45" stroke-width="1.2" /><polygon points="805.87,581.10 828.53,606.77 757.61,581.10" fill="#745d36" fill-opacity="1.000" stroke="#705329" stroke-opacity="0.45" stroke-width="1.2" /><polygon points="755.60,589.15 803.86,589.15 757.61,581.10" fill="#a5864d" fill-opacity="1.000" stroke="#705329" stroke-opacity="0.45" stroke-width="1.2" /><polygon points="803.86,589.15 826.52,614.81 805.87,581.10" fill="#a1824b" fill-opacity="1.000" stroke="#705329" stroke-opacity="0.45" stroke-width="1.2" /><polygon points="757.61,581.10 803.86,589.15 805.87,581.10" fill="#a5864d" fill-opacity="1.000" stroke="#705329" stroke-opacity="0.45" stroke-width="1.2" />
  
</svg>
