<svg xmlns="http://www.w3.org/2000/svg" width="1600" height="1200" viewBox="0 0 1600 1200">
  <defs>
    <linearGradient id="bg" x1="0" y1="0" x2="0" y2="1">
      <stop offset="0%" stop-color="#f8f5ef" />
      <stop offset="100%" stop-color="#ebe2d1" />
    </linearGradient>
    <filter id="blur">
      <feGaussianBlur stdDeviation="18" />
    </filter>
  </defs>
  <rect width="100%" height="100%" fill="url(#bg)" />
  <ellipse cx="774.00" cy="939.03" rx="292.32" ry="52.62" fill="#7d6646" fill-opacity="0.18" filter="url(#blur)" />
  <text x="100" y="120" font-family="Helvetica, Arial, sans-serif" font-size="68" fill="#201a14">Right-Side Cable Access</text>
  <text x="100" y="175" font-family="Helvetica, Arial, sans-serif" font-size="32" fill="#5e5143">The side posts leave the connector side mostly open</text>
  <polygon points="768.40,894.88 725.74,894.88 766.30,887.17" fill="#594829" fill-opacity="1.000" stroke="#705329" stroke-opacity="0.45" stroke-width="1.2" /><polygon points="792.15,864.62 768.40,894.88 766.30,887.17" fill="#594829" fill-opacity="1.000" stroke="#705329" stroke-opacity="0.45" stroke-width="1.2" /><polygon points="766.30,887.17 725.74,894.88 723.64,887.17" fill="#594829" fill-opacity="1.000" stroke="#705329" stroke-opacity="0.45" stroke-width="1.2" /><polygon points="768.40,894.88 794.26,872.32 725.74,894.88" fill="#594829" fill-opacity="1.000" stroke="#705329" stroke-opacity="0.45" stroke-width="1.2" /><polygon points="794.26,872.32 768.40,894.88 792.15,864.62" fill="#594829" fill-opacity="1.000" stroke="#705329" stroke-opacity="0.45" stroke-width="1.2" /><polygon points="749.50,864.62 766.30,887.17 723.64,887.17" fill="#675330" fill-opacity="1.000" stroke="#705329" stroke-opacity="0.45" stroke-width="1.2" /><polygon points="792.15,864.62 766.30,887.17 749.50,864.62" fill="#675330" fill-opacity="1.000" stroke="#705329" stroke-opacity="0.45" stroke-width="1.2" /><polygon points="725.74,894.88 751.60,872.32 723.64,887.17" fill="#675330" fill-opacity="1.000" stroke="#705329" stroke-opacity="0.45" stroke-width="1.2" /><polygon points="725.74,894.88 794.26,872.32 751.60,872.32" fill="#594829" fill-opacity="1.000" stroke="#705329" stroke-opacity="0.45" stroke-width="1.2" /><polygon points="781.00,921.57 445.46,921.57 774.69,898.45" fill="#594829" fill-opacity="1.000" stroke="#705329" stroke-opacity="0.45" stroke-width="1.2" /><polygon points="749.50,864.62 794.26,872.32 792.15,864.62" fill="#c49e5c" fill-opacity="1.000" stroke="#705329" stroke-opacity="0.45" stroke-width="1.2" /><polygon points="723.64,887.17 751.60,872.32 749.50,864.62" fill="#675330" fill-opacity="1.000" stroke="#705329" stroke-opacity="0.45" stroke-width="1.2" /><polygon points="751.60,872.32 794.26,872.32 749.50,864.62" fill="#c49e5c" fill-opacity="1.000" stroke="#705329" stroke-opacity="0.45" stroke-width="1.2" /><polygon points="772.82,891.50 770.42,960.86 751.50,891.50" fill="#594829" fill-opacity="1.000" stroke="#705329" stroke-opacity="0.45" stroke-width="1.2" /><polygon points="791.74,960.86 770.42,960.86 772.82,891.50" fill="#594829" fill-opacity="1.000" stroke="#705329" stroke-opacity="0.45" stroke-width="1.2" /><polygon points="760.12,883.98 766.11,964.62 747.19,895.26" fill="#594829" fill-opacity="1.000" stroke="#705329" stroke-opacity="0.45" stroke-width="1.2" /><polygon points="820.23,850.15 791.74,960.86 772.82,891.50" fill="#594829" fill-opacity="1.000" stroke="#705329" stroke-opacity="0.45" stroke-width="1.2" /><polygon points="798.90,850.15 772.82,891.50 751.50,891.50" fill="#675330" fill-opacity="1.000" stroke="#705329" stroke-opacity="0.45" stroke-width="1.2" /><polygon points="760.12,883.98 747.19,895.26 698.98,883.98" fill="#675330" fill-opacity="1.000" stroke="#705329" stroke-opacity="0.45" stroke-width="1.2" /><polygon points="779.04,953.34 766.11,964.62 760.12,883.98" fill="#594829" fill-opacity="1.000" stroke="#705329" stroke-opacity="0.45" stroke-width="1.2" /><polygon points="766.11,964.62 704.97,964.62 747.19,895.26" fill="#594829" fill-opacity="1.000" stroke="#705329" stroke-opacity="0.45" stroke-width="1.2" /><polygon points="698.98,883.98 747.19,895.26 686.05,895.26" fill="#675330" fill-opacity="1.000" stroke="#705329" stroke-opacity="0.45" stroke-width="1.2" /><polygon points="747.19,895.26 704.97,964.62 686.05,895.26" fill="#594829" fill-opacity="1.000" stroke="#705329" stroke-opacity="0.45" stroke-width="1.2" /><polygon points="739.98,879.84 738.39,895.54 735.24,883.98" fill="#594829" fill-opacity="1.000" stroke="#705329" stroke-opacity="0.45" stroke-width="1.2" /><polygon points="698.98,883.98 779.04,953.34 760.12,883.98" fill="#c49e5c" fill-opacity="1.000" stroke="#705329" stroke-opacity="0.45" stroke-width="1.2" /><polygon points="820.23,850.15 772.82,891.50 798.90,850.15" fill="#675330" fill-opacity="1.000" stroke="#705329" stroke-opacity="0.45" stroke-width="1.2" /><polygon points="743.13,891.40 738.39,895.54 739.98,879.84" fill="#594829" fill-opacity="1.000" stroke="#705329" stroke-opacity="0.45" stroke-width="1.2" /><polygon points="766.11,964.62 779.04,953.34 704.97,964.62" fill="#594829" fill-opacity="1.000" stroke="#705329" stroke-opacity="0.45" stroke-width="1.2" /><polygon points="791.74,960.86 839.15,919.51 770.42,960.86" fill="#594829" fill-opacity="1.000" stroke="#705329" stroke-opacity="0.45" stroke-width="1.2" /><polygon points="770.42,960.86 817.82,919.51 751.50,891.50" fill="#675330" fill-opacity="1.000" stroke="#705329" stroke-opacity="0.45" stroke-width="1.2" /><polygon points="738.39,895.54 674.41,895.54 735.24,883.98" fill="#594829" fill-opacity="1.000" stroke="#705329" stroke-opacity="0.45" stroke-width="1.2" /><polygon points="739.98,879.84 735.24,883.98 676.00,879.84" fill="#675330" fill-opacity="1.000" stroke="#705329" stroke-opacity="0.45" stroke-width="1.2" /><polygon points="774.69,898.45 445.46,921.57 439.15,898.45" fill="#594829" fill-opacity="1.000" stroke="#705329" stroke-opacity="0.45" stroke-width="1.2" /><polygon points="738.39,895.54 743.13,891.40 674.41,895.54" fill="#594829" fill-opacity="1.000" stroke="#705329" stroke-opacity="0.45" stroke-width="1.2" /><polygon points="839.15,919.51 791.74,960.86 820.23,850.15" fill="#594829" fill-opacity="1.000" stroke="#705329" stroke-opacity="0.45" stroke-width="1.2" /><polygon points="676.00,879.84 743.13,891.40 739.98,879.84" fill="#c49e5c" fill-opacity="1.000" stroke="#705329" stroke-opacity="0.45" stroke-width="1.2" /><polygon points="751.50,891.50 817.82,919.51 798.90,850.15" fill="#675330" fill-opacity="1.000" stroke="#705329" stroke-opacity="0.45" stroke-width="1.2" /><polygon points="686.05,895.26 717.90,953.34 698.98,883.98" fill="#675330" fill-opacity="1.000" stroke="#705329" stroke-opacity="0.45" stroke-width="1.2" /><polygon points="717.90,953.34 779.04,953.34 698.98,883.98" fill="#c49e5c" fill-opacity="1.000" stroke="#705329" stroke-opacity="0.45" stroke-width="1.2" /><polygon points="735.24,883.98 674.41,895.54 671.26,883.98" fill="#594829" fill-opacity="1.000" stroke="#705329" stroke-opacity="0.45" stroke-width="1.2" /><polygon points="704.97,964.62 717.90,953.34 686.05,895.26" fill="#675330" fill-opacity="1.000" stroke="#705329" stroke-opacity="0.45" stroke-width="1.2" /><polygon points="676.00,879.84 735.24,883.98 671.26,883.98" fill="#675330" fill-opacity="1.000" stroke="#705329" stroke-opacity="0.45" stroke-width="1.2" /><polygon points="704.97,964.62 779.04,953.34 717.90,953.34" fill="#594829" fill-opacity="1.000" stroke="#705329" stroke-opacity="0.45" stroke-width="1.2" /><polygon points="674.41,895.54 743.13,891.40 679.15,891.40" fill="#594829" fill-opacity="1.000" stroke="#705329" stroke-opacity="0.45" stroke-width="1.2" /><polygon points="679.15,891.40 743.13,891.40 676.00,879.84" fill="#c49e5c" fill-opacity="1.000" stroke="#705329" stroke-opacity="0.45" stroke-width="1.2" /><polygon points="798.90,850.15 839.15,919.51 820.23,850.15" fill="#c49e5c" fill-opacity="1.000" stroke="#705329" stroke-opacity="0.45" stroke-width="1.2" /><polygon points="770.42,960.86 839.15,919.51 817.82,919.51" fill="#594829" fill-opacity="1.000" stroke="#705329" stroke-opacity="0.45" stroke-width="1.2" /><polygon points="1128.85,589.55 781.00,921.57 774.69,898.45" fill="#594829" fill-opacity="1.000" stroke="#705329" stroke-opacity="0.45" stroke-width="1.2" /><polygon points="674.41,895.54 679.15,891.40 671.26,883.98" fill="#675330" fill-opacity="1.000" stroke="#705329" stroke-opacity="0.45" stroke-width="1.2" /><polygon points="671.26,883.98 679.15,891.40 676.00,879.84" fill="#675330" fill-opacity="1.000" stroke="#705329" stroke-opacity="0.45" stroke-width="1.2" /><polygon points="817.82,919.51 839.15,919.51 798.90,850.15" fill="#c49e5c" fill-opacity="1.000" stroke="#705329" stroke-opacity="0.45" stroke-width="1.2" /><polygon points="646.14,879.84 644.55,895.54 641.40,883.98" fill="#594829" fill-opacity="1.000" stroke="#705329" stroke-opacity="0.45" stroke-width="1.2" /><polygon points="649.29,891.40 644.55,895.54 646.14,879.84" fill="#594829" fill-opacity="1.000" stroke="#705329" stroke-opacity="0.45" stroke-width="1.2" /><polygon points="613.67,883.98 619.66,964.62 600.74,895.26" fill="#594829" fill-opacity="1.000" stroke="#705329" stroke-opacity="0.45" stroke-width="1.2" /><polygon points="644.55,895.54 580.57,895.54 641.40,883.98" fill="#594829" fill-opacity="1.000" stroke="#705329" stroke-opacity="0.45" stroke-width="1.2" /><polygon points="518.16,894.88 475.51,894.88 516.06,887.17" fill="#594829" fill-opacity="1.000" stroke="#705329" stroke-opacity="0.45" stroke-width="1.2" /><polygon points="646.14,879.84 641.40,883.98 582.16,879.84" fill="#675330" fill-opacity="1.000" stroke="#705329" stroke-opacity="0.45" stroke-width="1.2" /><polygon points="541.92,864.62 518.16,894.88 516.06,887.17" fill="#594829" fill-opacity="1.000" stroke="#705329" stroke-opacity="0.45" stroke-width="1.2" /><polygon points="644.55,895.54 649.29,891.40 580.57,895.54" fill="#594829" fill-opacity="1.000" stroke="#705329" stroke-opacity="0.45" stroke-width="1.2" /><polygon points="582.16,879.84 649.29,891.40 646.14,879.84" fill="#c49e5c" fill-opacity="1.000" stroke="#705329" stroke-opacity="0.45" stroke-width="1.2" /><polygon points="613.67,883.98 600.74,895.26 552.54,883.98" fill="#675330" fill-opacity="1.000" stroke="#705329" stroke-opacity="0.45" stroke-width="1.2" /><polygon points="516.06,887.17 475.51,894.88 473.41,887.17" fill="#594829" fill-opacity="1.000" stroke="#705329" stroke-opacity="0.45" stroke-width="1.2" /><polygon points="641.40,883.98 580.57,895.54 577.42,883.98" fill="#594829" fill-opacity="1.000" stroke="#705329" stroke-opacity="0.45" stroke-width="1.2" /><polygon points="632.59,953.34 619.66,964.62 613.67,883.98" fill="#594829" fill-opacity="1.000" stroke="#705329" stroke-opacity="0.45" stroke-width="1.2" /><polygon points="582.16,879.84 641.40,883.98 577.42,883.98" fill="#675330" fill-opacity="1.000" stroke="#705329" stroke-opacity="0.45" stroke-width="1.2" /><polygon points="518.16,894.88 544.02,872.32 475.51,894.88" fill="#594829" fill-opacity="1.000" stroke="#705329" stroke-opacity="0.45" stroke-width="1.2" /><polygon points="619.66,964.62 558.53,964.62 600.74,895.26" fill="#594829" fill-opacity="1.000" stroke="#705329" stroke-opacity="0.45" stroke-width="1.2" /><polygon points="552.54,883.98 600.74,895.26 539.61,895.26" fill="#675330" fill-opacity="1.000" stroke="#705329" stroke-opacity="0.45" stroke-width="1.2" /><polygon points="544.02,872.32 518.16,894.88 541.92,864.62" fill="#594829" fill-opacity="1.000" stroke="#705329" stroke-opacity="0.45" stroke-width="1.2" /><polygon points="600.74,895.26 558.53,964.62 539.61,895.26" fill="#594829" fill-opacity="1.000" stroke="#705329" stroke-opacity="0.45" stroke-width="1.2" /><polygon points="499.27,864.62 516.06,887.17 473.41,887.17" fill="#675330" fill-opacity="1.000" stroke="#705329" stroke-opacity="0.45" stroke-width="1.2" /><polygon points="580.57,895.54 649.29,891.40 585.31,891.40" fill="#594829" fill-opacity="1.000" stroke="#705329" stroke-opacity="0.45" stroke-width="1.2" /><polygon points="585.31,891.40 649.29,891.40 582.16,879.84" fill="#c49e5c" fill-opacity="1.000" stroke="#705329" stroke-opacity="0.45" stroke-width="1.2" /><polygon points="541.92,864.62 516.06,887.17 499.27,864.62" fill="#675330" fill-opacity="1.000" stroke="#705329" stroke-opacity="0.45" stroke-width="1.2" /><polygon points="552.54,883.98 632.59,953.34 613.67,883.98" fill="#c49e5c" fill-opacity="1.000" stroke="#705329" stroke-opacity="0.45" stroke-width="1.2" /><polygon points="619.66,964.62 632.59,953.34 558.53,964.62" fill="#594829" fill-opacity="1.000" stroke="#705329" stroke-opacity="0.45" stroke-width="1.2" /><polygon points="580.57,895.54 585.31,891.40 577.42,883.98" fill="#675330" fill-opacity="1.000" stroke="#705329" stroke-opacity="0.45" stroke-width="1.2" /><polygon points="577.42,883.98 585.31,891.40 582.16,879.84" fill="#675330" fill-opacity="1.000" stroke="#705329" stroke-opacity="0.45" stroke-width="1.2" /><polygon points="475.51,894.88 501.37,872.32 473.41,887.17" fill="#675330" fill-opacity="1.000" stroke="#705329" stroke-opacity="0.45" stroke-width="1.2" /><polygon points="475.51,894.88 544.02,872.32 501.37,872.32" fill="#594829" fill-opacity="1.000" stroke="#705329" stroke-opacity="0.45" stroke-width="1.2" /><polygon points="499.27,864.62 544.02,872.32 541.92,864.62" fill="#c49e5c" fill-opacity="1.000" stroke="#705329" stroke-opacity="0.45" stroke-width="1.2" /><polygon points="539.61,895.26 537.20,964.62 518.28,895.26" fill="#594829" fill-opacity="1.000" stroke="#705329" stroke-opacity="0.45" stroke-width="1.2" /><polygon points="473.41,887.17 501.37,872.32 499.27,864.62" fill="#675330" fill-opacity="1.000" stroke="#705329" stroke-opacity="0.45" stroke-width="1.2" /><polygon points="539.61,895.26 571.45,953.34 552.54,883.98" fill="#675330" fill-opacity="1.000" stroke="#705329" stroke-opacity="0.45" stroke-width="1.2" /><polygon points="781.00,921.57 1135.15,612.67 445.46,921.57" fill="#594829" fill-opacity="1.000" stroke="#705329" stroke-opacity="0.45" stroke-width="1.2" /><polygon points="558.53,964.62 537.20,964.62 539.61,895.26" fill="#594829" fill-opacity="1.000" stroke="#705329" stroke-opacity="0.45" stroke-width="1.2" /><polygon points="571.45,953.34 632.59,953.34 552.54,883.98" fill="#c49e5c" fill-opacity="1.000" stroke="#705329" stroke-opacity="0.45" stroke-width="1.2" /><polygon points="501.37,872.32 544.02,872.32 499.27,864.62" fill="#c49e5c" fill-opacity="1.000" stroke="#705329" stroke-opacity="0.45" stroke-width="1.2" /><polygon points="558.53,964.62 571.45,953.34 539.61,895.26" fill="#675330" fill-opacity="1.000" stroke="#705329" stroke-opacity="0.45" stroke-width="1.2" /><polygon points="558.53,964.62 632.59,953.34 571.45,953.34" fill="#594829" fill-opacity="1.000" stroke="#705329" stroke-opacity="0.45" stroke-width="1.2" /><polygon points="578.59,882.38 570.77,882.38 575.44,870.82" fill="#594829" fill-opacity="1.000" stroke="#705329" stroke-opacity="0.45" stroke-width="1.2" /><polygon points="575.44,870.82 570.77,882.38 567.62,870.82" fill="#594829" fill-opacity="1.000" stroke="#705329" stroke-opacity="0.45" stroke-width="1.2" /><polygon points="793.31,589.55 774.69,898.45 439.15,898.45" fill="#675330" fill-opacity="1.000" stroke="#705329" stroke-opacity="0.45" stroke-width="1.2" /><polygon points="1135.15,612.67 781.00,921.57 1128.85,589.55" fill="#594829" fill-opacity="1.000" stroke="#705329" stroke-opacity="0.45" stroke-width="1.2" /><polygon points="833.42,638.99 558.53,964.62 539.61,895.26" fill="#594829" fill-opacity="1.000" stroke="#705329" stroke-opacity="0.45" stroke-width="1.2" /><polygon points="812.10,638.99 539.61,895.26 518.28,895.26" fill="#675330" fill-opacity="1.000" stroke="#705329" stroke-opacity="0.45" stroke-width="1.2" /><polygon points="813.23,663.42 578.59,882.38 575.44,870.82" fill="#594829" fill-opacity="1.000" stroke="#705329" stroke-opacity="0.45" stroke-width="1.2" /><polygon points="805.41,663.42 575.44,870.82 567.62,870.82" fill="#675330" fill-opacity="1.000" stroke="#705329" stroke-opacity="0.45" stroke-width="1.2" /><polygon points="578.59,882.38 816.38,674.98 570.77,882.38" fill="#594829" fill-opacity="1.000" stroke="#705329" stroke-opacity="0.45" stroke-width="1.2" /><polygon points="570.77,882.38 808.56,674.98 567.62,870.82" fill="#675330" fill-opacity="1.000" stroke="#705329" stroke-opacity="0.45" stroke-width="1.2" /><polygon points="445.46,921.57 799.61,612.67 439.15,898.45" fill="#675330" fill-opacity="1.000" stroke="#705329" stroke-opacity="0.45" stroke-width="1.2" /><polygon points="558.53,964.62 852.34,708.35 537.20,964.62" fill="#594829" fill-opacity="1.000" stroke="#705329" stroke-opacity="0.45" stroke-width="1.2" /><polygon points="537.20,964.62 831.02,708.35 518.28,895.26" fill="#675330" fill-opacity="1.000" stroke="#705329" stroke-opacity="0.45" stroke-width="1.2" /><polygon points="1128.85,589.55 774.69,898.45 793.31,589.55" fill="#675330" fill-opacity="1.000" stroke="#705329" stroke-opacity="0.45" stroke-width="1.2" /><polygon points="1010.61,684.09 1008.21,753.46 989.29,684.09" fill="#594829" fill-opacity="1.000" stroke="#705329" stroke-opacity="0.45" stroke-width="1.2" /><polygon points="1029.53,753.46 1008.21,753.46 1010.61,684.09" fill="#594829" fill-opacity="1.000" stroke="#705329" stroke-opacity="0.45" stroke-width="1.2" /><polygon points="1058.02,642.75 1029.53,753.46 1010.61,684.09" fill="#594829" fill-opacity="1.000" stroke="#705329" stroke-opacity="0.45" stroke-width="1.2" /><polygon points="1036.69,642.75 1010.61,684.09 989.29,684.09" fill="#675330" fill-opacity="1.000" stroke="#705329" stroke-opacity="0.45" stroke-width="1.2" /><polygon points="1058.02,642.75 1010.61,684.09 1036.69,642.75" fill="#675330" fill-opacity="1.000" stroke="#705329" stroke-opacity="0.45" stroke-width="1.2" /><polygon points="1070.83,631.09 1028.18,631.09 1068.73,623.38" fill="#594829" fill-opacity="1.000" stroke="#705329" stroke-opacity="0.45" stroke-width="1.2" /><polygon points="1094.59,600.83 1070.83,631.09 1068.73,623.38" fill="#594829" fill-opacity="1.000" stroke="#705329" stroke-opacity="0.45" stroke-width="1.2" /><polygon points="1029.53,753.46 1076.94,712.11 1008.21,753.46" fill="#594829" fill-opacity="1.000" stroke="#705329" stroke-opacity="0.45" stroke-width="1.2" /><polygon points="1008.21,753.46 1055.61,712.11 989.29,684.09" fill="#675330" fill-opacity="1.000" stroke="#705329" stroke-opacity="0.45" stroke-width="1.2" /><polygon points="1068.73,623.38 1028.18,631.09 1026.08,623.38" fill="#594829" fill-opacity="1.000" stroke="#705329" stroke-opacity="0.45" stroke-width="1.2" /><polygon points="1076.94,712.11 1029.53,753.46 1058.02,642.75" fill="#594829" fill-opacity="1.000" stroke="#705329" stroke-opacity="0.45" stroke-width="1.2" /><polygon points="1070.83,631.09 1096.69,608.54 1028.18,631.09" fill="#594829" fill-opacity="1.000" stroke="#705329" stroke-opacity="0.45" stroke-width="1.2" /><polygon points="1096.69,608.54 1070.83,631.09 1094.59,600.83" fill="#594829" fill-opacity="1.000" stroke="#705329" stroke-opacity="0.45" stroke-width="1.2" /><polygon points="445.46,921.57 1135.15,612.67 799.61,612.67" fill="#594829" fill-opacity="1.000" stroke="#705329" stroke-opacity="0.45" stroke-width="1.2" /><polygon points="813.23,663.42 575.44,870.82 805.41,663.42" fill="#675330" fill-opacity="1.000" stroke="#705329" stroke-opacity="0.45" stroke-width="1.2" /><polygon points="816.38,674.98 578.59,882.38 813.23,663.42" fill="#594829" fill-opacity="1.000" stroke="#705329" stroke-opacity="0.45" stroke-width="1.2" /><polygon points="989.29,684.09 1055.61,712.11 1036.69,642.75" fill="#675330" fill-opacity="1.000" stroke="#705329" stroke-opacity="0.45" stroke-width="1.2" /><polygon points="1051.94,600.83 1068.73,623.38 1026.08,623.38" fill="#675330" fill-opacity="1.000" stroke="#705329" stroke-opacity="0.45" stroke-width="1.2" /><polygon points="567.62,870.82 808.56,674.98 805.41,663.42" fill="#675330" fill-opacity="1.000" stroke="#705329" stroke-opacity="0.45" stroke-width="1.2" /><polygon points="570.77,882.38 816.38,674.98 808.56,674.98" fill="#594829" fill-opacity="1.000" stroke="#705329" stroke-opacity="0.45" stroke-width="1.2" /><polygon points="1094.59,600.83 1068.73,623.38 1051.94,600.83" fill="#675330" fill-opacity="1.000" stroke="#705329" stroke-opacity="0.45" stroke-width="1.2" /><polygon points="1028.18,631.09 1054.04,608.54 1026.08,623.38" fill="#675330" fill-opacity="1.000" stroke="#705329" stroke-opacity="0.45" stroke-width="1.2" /><polygon points="1036.69,642.75 1076.94,712.11 1058.02,642.75" fill="#c49e5c" fill-opacity="1.000" stroke="#705329" stroke-opacity="0.45" stroke-width="1.2" /><polygon points="1008.21,753.46 1076.94,712.11 1055.61,712.11" fill="#594829" fill-opacity="1.000" stroke="#705329" stroke-opacity="0.45" stroke-width="1.2" /><polygon points="1003.19,650.26 1001.61,665.96 998.45,654.40" fill="#594829" fill-opacity="1.000" stroke="#705329" stroke-opacity="0.45" stroke-width="1.2" /><polygon points="1041.00,638.99 1046.99,719.63 1028.08,650.26" fill="#594829" fill-opacity="1.000" stroke="#705329" stroke-opacity="0.45" stroke-width="1.2" /><polygon points="1028.18,631.09 1096.69,608.54 1054.04,608.54" fill="#594829" fill-opacity="1.000" stroke="#705329" stroke-opacity="0.45" stroke-width="1.2" /><polygon points="1051.94,600.83 1096.69,608.54 1094.59,600.83" fill="#c49e5c" fill-opacity="1.000" stroke="#705329" stroke-opacity="0.45" stroke-width="1.2" /><polygon points="1006.35,661.82 1001.61,665.96 1003.19,650.26" fill="#594829" fill-opacity="1.000" stroke="#705329" stroke-opacity="0.45" stroke-width="1.2" /><polygon points="833.42,638.99 539.61,895.26 812.10,638.99" fill="#675330" fill-opacity="1.000" stroke="#705329" stroke-opacity="0.45" stroke-width="1.2" /><polygon points="1026.08,623.38 1054.04,608.54 1051.94,600.83" fill="#675330" fill-opacity="1.000" stroke="#705329" stroke-opacity="0.45" stroke-width="1.2" /><polygon points="1041.00,638.99 1028.08,650.26 986.98,638.99" fill="#675330" fill-opacity="1.000" stroke="#705329" stroke-opacity="0.45" stroke-width="1.2" /><polygon points="1055.61,712.11 1076.94,712.11 1036.69,642.75" fill="#c49e5c" fill-opacity="1.000" stroke="#705329" stroke-opacity="0.45" stroke-width="1.2" /><polygon points="1001.61,665.96 937.63,665.96 998.45,654.40" fill="#594829" fill-opacity="1.000" stroke="#705329" stroke-opacity="0.45" stroke-width="1.2" /><polygon points="1054.04,608.54 1096.69,608.54 1051.94,600.83" fill="#c49e5c" fill-opacity="1.000" stroke="#705329" stroke-opacity="0.45" stroke-width="1.2" /><polygon points="1003.19,650.26 998.45,654.40 939.21,650.26" fill="#675330" fill-opacity="1.000" stroke="#705329" stroke-opacity="0.45" stroke-width="1.2" /><polygon points="986.98,638.99 1028.08,650.26 974.05,650.26" fill="#675330" fill-opacity="1.000" stroke="#705329" stroke-opacity="0.45" stroke-width="1.2" /><polygon points="1046.99,719.63 992.97,719.63 1028.08,650.26" fill="#594829" fill-opacity="1.000" stroke="#705329" stroke-opacity="0.45" stroke-width="1.2" /><polygon points="1001.61,665.96 1006.35,661.82 937.63,665.96" fill="#594829" fill-opacity="1.000" stroke="#705329" stroke-opacity="0.45" stroke-width="1.2" /><polygon points="1059.92,708.35 1046.99,719.63 1041.00,638.99" fill="#594829" fill-opacity="1.000" stroke="#705329" stroke-opacity="0.45" stroke-width="1.2" /><polygon points="852.34,708.35 558.53,964.62 833.42,638.99" fill="#594829" fill-opacity="1.000" stroke="#705329" stroke-opacity="0.45" stroke-width="1.2" /><polygon points="939.21,650.26 1006.35,661.82 1003.19,650.26" fill="#c49e5c" fill-opacity="1.000" stroke="#705329" stroke-opacity="0.45" stroke-width="1.2" /><polygon points="1028.08,650.26 992.97,719.63 974.05,650.26" fill="#594829" fill-opacity="1.000" stroke="#705329" stroke-opacity="0.45" stroke-width="1.2" /><polygon points="518.28,895.26 831.02,708.35 812.10,638.99" fill="#675330" fill-opacity="1.000" stroke="#705329" stroke-opacity="0.45" stroke-width="1.2" /><polygon points="998.45,654.40 937.63,665.96 934.47,654.40" fill="#594829" fill-opacity="1.000" stroke="#705329" stroke-opacity="0.45" stroke-width="1.2" /><polygon points="986.98,638.99 1059.92,708.35 1041.00,638.99" fill="#c49e5c" fill-opacity="1.000" stroke="#705329" stroke-opacity="0.45" stroke-width="1.2" /><polygon points="939.21,650.26 998.45,654.40 934.47,654.40" fill="#675330" fill-opacity="1.000" stroke="#705329" stroke-opacity="0.45" stroke-width="1.2" /><polygon points="1046.99,719.63 1059.92,708.35 992.97,719.63" fill="#594829" fill-opacity="1.000" stroke="#705329" stroke-opacity="0.45" stroke-width="1.2" /><polygon points="937.63,665.96 1006.35,661.82 942.37,661.82" fill="#594829" fill-opacity="1.000" stroke="#705329" stroke-opacity="0.45" stroke-width="1.2" /><polygon points="942.37,661.82 1006.35,661.82 939.21,650.26" fill="#c49e5c" fill-opacity="1.000" stroke="#705329" stroke-opacity="0.45" stroke-width="1.2" /><polygon points="537.20,964.62 852.34,708.35 831.02,708.35" fill="#594829" fill-opacity="1.000" stroke="#705329" stroke-opacity="0.45" stroke-width="1.2" /><polygon points="937.63,665.96 942.37,661.82 934.47,654.40" fill="#675330" fill-opacity="1.000" stroke="#705329" stroke-opacity="0.45" stroke-width="1.2" /><polygon points="974.05,650.26 1005.89,708.35 986.98,638.99" fill="#675330" fill-opacity="1.000" stroke="#705329" stroke-opacity="0.45" stroke-width="1.2" /><polygon points="934.47,654.40 942.37,661.82 939.21,650.26" fill="#675330" fill-opacity="1.000" stroke="#705329" stroke-opacity="0.45" stroke-width="1.2" /><polygon points="992.97,719.63 1005.89,708.35 974.05,650.26" fill="#675330" fill-opacity="1.000" stroke="#705329" stroke-opacity="0.45" stroke-width="1.2" /><polygon points="1005.89,708.35 1059.92,708.35 986.98,638.99" fill="#c49e5c" fill-opacity="1.000" stroke="#705329" stroke-opacity="0.45" stroke-width="1.2" /><polygon points="992.97,719.63 1059.92,708.35 1005.89,708.35" fill="#594829" fill-opacity="1.000" stroke="#705329" stroke-opacity="0.45" stroke-width="1.2" /><polygon points="439.15,898.45 799.61,612.67 793.31,589.55" fill="#675330" fill-opacity="1.000" stroke="#705329" stroke-opacity="0.45" stroke-width="1.2" /><polygon points="909.36,650.26 907.77,665.96 904.62,654.40" fill="#594829" fill-opacity="1.000" stroke="#705329" stroke-opacity="0.45" stroke-width="1.2" /><polygon points="912.51,661.82 907.77,665.96 909.36,650.26" fill="#594829" fill-opacity="1.000" stroke="#705329" stroke-opacity="0.45" stroke-width="1.2" /><polygon points="793.31,589.55 1135.15,612.67 1128.85,589.55" fill="#c49e5c" fill-opacity="1.000" stroke="#705329" stroke-opacity="0.45" stroke-width="1.2" /><polygon points="907.77,665.96 843.79,665.96 904.62,654.40" fill="#594829" fill-opacity="1.000" stroke="#705329" stroke-opacity="0.45" stroke-width="1.2" /><polygon points="909.36,650.26 904.62,654.40 845.38,650.26" fill="#675330" fill-opacity="1.000" stroke="#705329" stroke-opacity="0.45" stroke-width="1.2" /><polygon points="907.77,665.96 912.51,661.82 843.79,665.96" fill="#594829" fill-opacity="1.000" stroke="#705329" stroke-opacity="0.45" stroke-width="1.2" /><polygon points="845.38,650.26 912.51,661.82 909.36,650.26" fill="#c49e5c" fill-opacity="1.000" stroke="#705329" stroke-opacity="0.45" stroke-width="1.2" /><polygon points="904.62,654.40 843.79,665.96 840.64,654.40" fill="#594829" fill-opacity="1.000" stroke="#705329" stroke-opacity="0.45" stroke-width="1.2" /><polygon points="845.38,650.26 904.62,654.40 840.64,654.40" fill="#675330" fill-opacity="1.000" stroke="#705329" stroke-opacity="0.45" stroke-width="1.2" /><polygon points="843.79,665.96 912.51,661.82 848.53,661.82" fill="#594829" fill-opacity="1.000" stroke="#705329" stroke-opacity="0.45" stroke-width="1.2" /><polygon points="848.53,661.82 912.51,661.82 845.38,650.26" fill="#c49e5c" fill-opacity="1.000" stroke="#705329" stroke-opacity="0.45" stroke-width="1.2" /><polygon points="805.41,663.42 816.38,674.98 813.23,663.42" fill="#c49e5c" fill-opacity="1.000" stroke="#705329" stroke-opacity="0.45" stroke-width="1.2" /><polygon points="808.56,674.98 816.38,674.98 805.41,663.42" fill="#c49e5c" fill-opacity="1.000" stroke="#705329" stroke-opacity="0.45" stroke-width="1.2" /><polygon points="887.45,638.99 893.44,719.63 874.52,650.26" fill="#594829" fill-opacity="1.000" stroke="#705329" stroke-opacity="0.45" stroke-width="1.2" /><polygon points="843.79,665.96 848.53,661.82 840.64,654.40" fill="#675330" fill-opacity="1.000" stroke="#705329" stroke-opacity="0.45" stroke-width="1.2" /><polygon points="840.64,654.40 848.53,661.82 845.38,650.26" fill="#675330" fill-opacity="1.000" stroke="#705329" stroke-opacity="0.45" stroke-width="1.2" /><polygon points="887.45,638.99 874.52,650.26 833.42,638.99" fill="#675330" fill-opacity="1.000" stroke="#705329" stroke-opacity="0.45" stroke-width="1.2" /><polygon points="833.42,638.99 874.52,650.26 820.49,650.26" fill="#675330" fill-opacity="1.000" stroke="#705329" stroke-opacity="0.45" stroke-width="1.2" /><polygon points="893.44,719.63 839.41,719.63 874.52,650.26" fill="#594829" fill-opacity="1.000" stroke="#705329" stroke-opacity="0.45" stroke-width="1.2" /><polygon points="906.37,708.35 893.44,719.63 887.45,638.99" fill="#594829" fill-opacity="1.000" stroke="#705329" stroke-opacity="0.45" stroke-width="1.2" /><polygon points="874.52,650.26 839.41,719.63 820.49,650.26" fill="#594829" fill-opacity="1.000" stroke="#705329" stroke-opacity="0.45" stroke-width="1.2" /><polygon points="833.42,638.99 906.37,708.35 887.45,638.99" fill="#c49e5c" fill-opacity="1.000" stroke="#705329" stroke-opacity="0.45" stroke-width="1.2" /><polygon points="820.60,631.09 777.95,631.09 818.50,623.38" fill="#594829" fill-opacity="1.000" stroke="#705329" stroke-opacity="0.45" stroke-width="1.2" /><polygon points="893.44,719.63 906.37,708.35 839.41,719.63" fill="#594829" fill-opacity="1.000" stroke="#705329" stroke-opacity="0.45" stroke-width="1.2" /><polygon points="844.36,600.83 820.60,631.09 818.50,623.38" fill="#594829" fill-opacity="1.000" stroke="#705329" stroke-opacity="0.45" stroke-width="1.2" /><polygon points="818.50,623.38 777.95,631.09 775.85,623.38" fill="#594829" fill-opacity="1.000" stroke="#705329" stroke-opacity="0.45" stroke-width="1.2" /><polygon points="820.49,650.26 852.34,708.35 833.42,638.99" fill="#675330" fill-opacity="1.000" stroke="#705329" stroke-opacity="0.45" stroke-width="1.2" /><polygon points="820.60,631.09 846.46,608.54 777.95,631.09" fill="#594829" fill-opacity="1.000" stroke="#705329" stroke-opacity="0.45" stroke-width="1.2" /><polygon points="846.46,608.54 820.60,631.09 844.36,600.83" fill="#594829" fill-opacity="1.000" stroke="#705329" stroke-opacity="0.45" stroke-width="1.2" /><polygon points="839.41,719.63 852.34,708.35 820.49,650.26" fill="#675330" fill-opacity="1.000" stroke="#705329" stroke-opacity="0.45" stroke-width="1.2" /><polygon points="852.34,708.35 906.37,708.35 833.42,638.99" fill="#c49e5c" fill-opacity="1.000" stroke="#705329" stroke-opacity="0.45" stroke-width="1.2" /><polygon points="799.61,612.67 1135.15,612.67 793.31,589.55" fill="#c49e5c" fill-opacity="1.000" stroke="#705329" stroke-opacity="0.45" stroke-width="1.2" /><polygon points="839.41,719.63 906.37,708.35 852.34,708.35" fill="#594829" fill-opacity="1.000" stroke="#705329" stroke-opacity="0.45" stroke-width="1.2" /><polygon points="801.70,600.83 818.50,623.38 775.85,623.38" fill="#675330" fill-opacity="1.000" stroke="#705329" stroke-opacity="0.45" stroke-width="1.2" /><polygon points="844.36,600.83 818.50,623.38 801.70,600.83" fill="#675330" fill-opacity="1.000" stroke="#705329" stroke-opacity="0.45" stroke-width="1.2" /><polygon points="812.10,638.99 852.34,708.35 833.42,638.99" fill="#c49e5c" fill-opacity="1.000" stroke="#705329" stroke-opacity="0.45" stroke-width="1.2" /><polygon points="777.95,631.09 803.81,608.54 775.85,623.38" fill="#675330" fill-opacity="1.000" stroke="#705329" stroke-opacity="0.45" stroke-width="1.2" /><polygon points="777.95,631.09 846.46,608.54 803.81,608.54" fill="#594829" fill-opacity="1.000" stroke="#705329" stroke-opacity="0.45" stroke-width="1.2" /><polygon points="801.70,600.83 846.46,608.54 844.36,600.83" fill="#c49e5c" fill-opacity="1.000" stroke="#705329" stroke-opacity="0.45" stroke-width="1.2" /><polygon points="831.02,708.35 852.34,708.35 812.10,638.99" fill="#c49e5c" fill-opacity="1.000" stroke="#705329" stroke-opacity="0.45" stroke-width="1.2" /><polygon points="775.85,623.38 803.81,608.54 801.70,600.83" fill="#675330" fill-opacity="1.000" stroke="#705329" stroke-opacity="0.45" stroke-width="1.2" /><polygon points="803.81,608.54 846.46,608.54 801.70,600.83" fill="#c49e5c" fill-opacity="1.000" stroke="#705329" stroke-opacity="0.45" stroke-width="1.2" />
  <line x1="1036.21" y1="709.47" x2="1096" y2="350" stroke="#6b5841" stroke-width="3" /><circle cx="1036.21" cy="709.47" r="7" fill="#6b5841" /><text x="1120" y="360" font-family="Helvetica, Arial, sans-serif" font-size="30" fill="#3c342c">Open right-side access</text><text x="1120" y="400" font-family="Helvetica, Arial, sans-serif" font-size="30" fill="#3c342c">for charging and data cables</text>
</svg>
